<svg xmlns="http://www.w3.org/2000/svg" viewBox="0 0 1200 800"><defs><linearGradient id="g" x2="1" y2="1"><stop stop-color="#111927"/><stop offset="1" stop-color="#3d4f64"/></linearGradient><pattern id="p" width="96" height="96" patternUnits="userSpaceOnUse"><path d="M0 22 32 0l32 22 32-22v96H0z" fill="none" stroke="#fff" stroke-opacity=".1"/><path d="M0 54h96M48 0v96" stroke="#fff" stroke-opacity=".07"/></pattern></defs><rect width="1200" height="800" fill="url(#g)"/><rect width="1200" height="800" fill="url(#p)"/><g fill="none" stroke="#b7d7f2" stroke-opacity=".65" stroke-width="3"><path d="M80 600C310 420 540 390 780 480s230 60 340-15"/><path d="M130 300C350 180 600 165 860 270s180 70 260 25"/></g><g fill="#fff"><circle cx="375" cy="459" r="8"/><circle cx="780" cy="480" r="8"/><circle cx="1010" cy="510" r="8"/></g><text x="78" y="105" fill="#fff" font-family="Georgia,serif" font-size="84">Great Britain</text><text x="82" y="154" fill="#c9dced" font-family="ui-monospace,monospace" font-size="22">~40M UPRN PROPERTY IDENTITIES</text><text x="82" y="720" fill="#fff" font-family="ui-monospace,monospace" font-size="19">UPRN · OS · HMLR · INSPIRE</text></svg>