<svg xmlns="http://www.w3.org/2000/svg" viewBox="0 0 1200 800"><defs><linearGradient id="g" x2="1" y2="1"><stop stop-color="#081b3a"/><stop offset="1" stop-color="#174f93"/></linearGradient><pattern id="p" width="110" height="90" patternUnits="userSpaceOnUse"><path d="M0 0h110v90H0z" fill="none" stroke="#fff" stroke-opacity=".1"/><path d="M20 0v90M68 0v90M0 34h110M0 66h110" stroke="#fff" stroke-opacity=".08"/></pattern></defs><rect width="1200" height="800" fill="url(#g)"/><rect width="1200" height="800" fill="url(#p)"/><g fill="none" stroke="#7db5ff" stroke-opacity=".65" stroke-width="3"><path d="M70 640 250 520 430 575 620 430 840 510 1110 340"/><path d="M130 250 340 190 510 265 730 150 950 230 1130 150"/></g><g fill="#fff"><circle cx="250" cy="520" r="8"/><circle cx="620" cy="430" r="8"/><circle cx="840" cy="510" r="8"/></g><text x="78" y="105" fill="#fff" font-family="Georgia,serif" font-size="84">United States</text><text x="82" y="154" fill="#9fc7ee" font-family="ui-monospace,monospace" font-size="22">166M+ INDEXED PARCEL RECORDS</text><text x="82" y="720" fill="#fff" font-family="ui-monospace,monospace" font-size="19">COUNTY + STATE · PROPDATA</text></svg>