<svg xmlns="http://www.w3.org/2000/svg" viewBox="0 0 44 48" role="img" aria-label="PropData shield">
  <defs>
    <linearGradient id="pdShieldBlue" x1="7" y1="4" x2="37" y2="44" gradientUnits="userSpaceOnUse">
      <stop offset="0" stop-color="#0b1f3a"/>
      <stop offset=".58" stop-color="#143f91"/>
      <stop offset="1" stop-color="#2563eb"/>
    </linearGradient>
    <linearGradient id="pdShieldEdge" x1="8" y1="6" x2="35" y2="41" gradientUnits="userSpaceOnUse">
      <stop offset="0" stop-color="#7db5ff"/>
      <stop offset=".5" stop-color="#fff"/>
      <stop offset="1" stop-color="#b8d5ff"/>
    </linearGradient>
    <linearGradient id="pdShieldSheen" x1="10" y1="8" x2="31" y2="39" gradientUnits="userSpaceOnUse">
      <stop offset="0" stop-color="#fff" stop-opacity=".18"/>
      <stop offset=".55" stop-color="#fff" stop-opacity="0"/>
    </linearGradient>
    <clipPath id="pdShieldClip"><path d="M22 3.5 39.3 9.6v11.7c0 11.6-6.7 20.1-17.3 24.3C11.4 41.4 4.7 32.9 4.7 21.3V9.6Z"/></clipPath>
  </defs>
  <path d="M22 1.5 41 8.3v13c0 12.6-7.4 21.7-19 26C10.4 43 3 33.9 3 21.3v-13Z" fill="none" stroke="#2563eb" stroke-width="1" opacity=".28"/>
  <path d="M22 3.5 39.3 9.6v11.7c0 11.6-6.7 20.1-17.3 24.3C11.4 41.4 4.7 32.9 4.7 21.3V9.6Z" fill="url(#pdShieldBlue)" stroke="#082249" stroke-width="1.5" stroke-linejoin="round"/>
  <path d="M22 6.6 36.2 11.6v9.5c0 9.5-5.1 16.5-14.2 20.5-9.1-4-14.2-11-14.2-20.5v-9.5Z" fill="none" stroke="url(#pdShieldEdge)" stroke-width="1" stroke-linejoin="round" opacity=".94"/>
  <g clip-path="url(#pdShieldClip)">
    <path d="M7 10 22 4.7l15 5.2v9.5L14.8 42C9.7 37.3 7 30.5 7 21.5Z" fill="url(#pdShieldSheen)"/>
    <path d="M11 37h22" stroke="#fff" stroke-width=".8" stroke-linecap="round" opacity=".28"/>
    <rect x="11.2" y="25" width="5.6" height="12" rx="1.5" fill="#ef3340"/>
    <rect x="19.2" y="20" width="5.6" height="17" rx="1.5" fill="#fff"/>
    <rect x="27.2" y="14" width="5.6" height="23" rx="1.5" fill="#7db5ff"/>
  </g>
  <path d="m12.4 12.2 9.6-3.4 9.6 3.4" fill="none" stroke="#ef3340" stroke-width="1.3" stroke-linecap="round" stroke-linejoin="round"/>
  <path d="M22 6.6 36.2 11.6v9.5c0 9.5-5.1 16.5-14.2 20.5-9.1-4-14.2-11-14.2-20.5v-9.5Z" fill="none" stroke="#fff" stroke-width="1" stroke-linecap="round" opacity=".82"/>
</svg>